<mxfile host="app.diagrams.net" modified="2023-07-10T02:22:06.915Z" agent="Mozilla/5.0 (Windows NT 10.0; Win64; x64) AppleWebKit/537.36 (KHTML, like Gecko) Chrome/114.0.0.0 Safari/537.36" etag="wdZNMkWklSDXvasZSKnr" version="21.6.1" type="github">
  <diagram name="페이지-1" id="sgdNwLf_-hnBGLfdezvL">
    <mxGraphModel dx="1050" dy="573" grid="1" gridSize="10" guides="1" tooltips="1" connect="1" arrows="1" fold="1" page="1" pageScale="1" pageWidth="827" pageHeight="1169" math="0" shadow="0">
      <root>
        <mxCell id="0" />
        <mxCell id="1" parent="0" />
        <mxCell id="y8GIRl0xxLpV2ApnGTQO-3" value="학생&lt;span style=&quot;white-space: pre;&quot;&gt;&#x9;&lt;/span&gt;" style="whiteSpace=wrap;html=1;align=center;" vertex="1" parent="1">
          <mxGeometry x="140" y="220" width="100" height="40" as="geometry" />
        </mxCell>
        <mxCell id="y8GIRl0xxLpV2ApnGTQO-4" value="수강" style="shape=rhombus;perimeter=rhombusPerimeter;whiteSpace=wrap;html=1;align=center;" vertex="1" parent="1">
          <mxGeometry x="354" y="210" width="120" height="60" as="geometry" />
        </mxCell>
        <mxCell id="y8GIRl0xxLpV2ApnGTQO-5" value="과목" style="whiteSpace=wrap;html=1;align=center;" vertex="1" parent="1">
          <mxGeometry x="600" y="220" width="100" height="40" as="geometry" />
        </mxCell>
        <mxCell id="y8GIRl0xxLpV2ApnGTQO-6" value="" style="endArrow=none;html=1;rounded=0;exitX=0;exitY=0.5;exitDx=0;exitDy=0;entryX=1;entryY=0.5;entryDx=0;entryDy=0;" edge="1" parent="1" source="y8GIRl0xxLpV2ApnGTQO-4" target="y8GIRl0xxLpV2ApnGTQO-3">
          <mxGeometry relative="1" as="geometry">
            <mxPoint x="240" y="240" as="sourcePoint" />
            <mxPoint x="270" y="190" as="targetPoint" />
            <Array as="points">
              <mxPoint x="300" y="240" />
            </Array>
          </mxGeometry>
        </mxCell>
        <mxCell id="y8GIRl0xxLpV2ApnGTQO-7" value="1" style="resizable=0;html=1;whiteSpace=wrap;align=right;verticalAlign=bottom;" connectable="0" vertex="1" parent="y8GIRl0xxLpV2ApnGTQO-6">
          <mxGeometry x="1" relative="1" as="geometry" />
        </mxCell>
        <mxCell id="y8GIRl0xxLpV2ApnGTQO-9" value="" style="endArrow=none;html=1;rounded=0;entryX=0;entryY=0.5;entryDx=0;entryDy=0;exitX=1;exitY=0.5;exitDx=0;exitDy=0;" edge="1" parent="1" source="y8GIRl0xxLpV2ApnGTQO-4" target="y8GIRl0xxLpV2ApnGTQO-5">
          <mxGeometry relative="1" as="geometry">
            <mxPoint x="490" y="240" as="sourcePoint" />
            <mxPoint x="580" y="240" as="targetPoint" />
          </mxGeometry>
        </mxCell>
        <mxCell id="y8GIRl0xxLpV2ApnGTQO-10" value="N" style="resizable=0;html=1;whiteSpace=wrap;align=right;verticalAlign=bottom;" connectable="0" vertex="1" parent="y8GIRl0xxLpV2ApnGTQO-9">
          <mxGeometry x="1" relative="1" as="geometry" />
        </mxCell>
      </root>
    </mxGraphModel>
  </diagram>
</mxfile>
